<svg width="70" height="88" viewBox="0 0 70 88" fill="none" xmlns="http://www.w3.org/2000/svg">
<path d="M0 8C0 3.58172 3.58172 0 8 0H62C66.4183 0 70 3.58172 70 8V80C70 84.4183 66.4183 88 62 88H0V8Z" fill="#EBEFF5"/>
<path d="M15.74 16.6C15.56 16.852 15.332 17.068 15.068 17.26C14.624 17.596 13.964 17.92 13.1 17.92C11.36 17.92 9.98 16.54 9.98 14.8C9.98 13.06 11.36 11.68 13.1 11.68C13.964 11.68 14.612 11.992 15.044 12.316C15.296 12.496 15.512 12.712 15.68 12.94L16.52 12.1C16.28 11.8 15.992 11.536 15.668 11.296C15.092 10.876 14.252 10.48 13.1 10.48C10.58 10.48 8.66 12.4 8.66 14.8C8.66 17.2 10.58 19.12 13.1 19.12C14.252 19.12 15.104 18.7 15.692 18.28C16.04 18.028 16.328 17.752 16.58 17.44L15.74 16.6ZM17.8414 19H19.0414V15.88C19.0414 14.92 19.7014 14.26 20.6014 14.26C21.3814 14.26 21.9214 14.788 21.9214 15.64V19H23.1214V15.64C23.1214 14.068 22.1614 13.12 20.8414 13.12C20.2294 13.12 19.7854 13.36 19.4854 13.6C19.3054 13.744 19.1614 13.9 19.0414 14.08V10.6H17.8414V19ZM24.8609 19H26.0609V13.24H24.8609V19ZM24.7409 11.44C24.7409 11.86 25.0889 12.16 25.4609 12.16C25.8329 12.16 26.1809 11.86 26.1809 11.44C26.1809 11.02 25.8329 10.72 25.4609 10.72C25.0889 10.72 24.7409 11.02 24.7409 11.44ZM32.1209 19H33.3209V10.6H32.1209V14.08C32.0009 13.9 31.8449 13.744 31.6529 13.6C31.3289 13.36 30.8249 13.12 30.1409 13.12C28.7009 13.12 27.4409 14.38 27.4409 16.12C27.4409 17.86 28.7009 19.12 30.1409 19.12C30.8249 19.12 31.3289 18.88 31.6529 18.64C31.8449 18.496 32.0009 18.34 32.1209 18.16V19ZM30.3809 17.98C29.4209 17.98 28.6409 17.212 28.6409 16.12C28.6409 15.028 29.4209 14.26 30.3809 14.26C31.3409 14.26 32.1209 15.028 32.1209 16.12C32.1209 17.212 31.3409 17.98 30.3809 17.98ZM35.1266 19H36.3266V13.24H35.1266V19ZM35.0066 11.44C35.0066 11.86 35.3546 12.16 35.7266 12.16C36.0986 12.16 36.4466 11.86 36.4466 11.44C36.4466 11.02 36.0986 10.72 35.7266 10.72C35.3546 10.72 35.0066 11.02 35.0066 11.44Z" fill="#203B64"/>
<rect opacity="0.7" x="8" y="30" width="54" height="54" rx="8" fill="white"/>
<g clip-path="url(#clip0)">
<path d="M30.031 50.2471C29.6332 50.2471 29.2516 50.4051 28.9703 50.6864C28.689 50.9677 28.531 51.3492 28.531 51.7471V62.2471C28.531 62.6449 28.689 63.0264 28.9703 63.3077C29.2516 63.589 29.6332 63.7471 30.031 63.7471H36.8485C36.8035 63.4996 36.781 63.2521 36.781 62.9971C36.781 62.4871 36.871 61.9771 37.0435 61.4971H30.031L32.656 58.1221L34.531 60.3721L37.156 56.9971L38.8285 59.2246C39.556 58.7521 40.411 58.4971 41.281 58.4971C41.536 58.4971 41.7835 58.5196 42.031 58.5646V51.7471C42.031 51.3492 41.873 50.9677 41.5917 50.6864C41.3104 50.4051 40.9288 50.2471 40.531 50.2471H30.031ZM40.531 59.9971V62.2471H38.281V63.7471H40.531V65.9971H42.031V63.7471H44.281V62.2471H42.031V59.9971H40.531Z" fill="#FF5841"/>
</g>
<defs>
<clipPath id="clip0">
<rect width="18" height="18" fill="white" transform="translate(26.281 47.9971)"/>
</clipPath>
</defs>
</svg>
