<svg width="128" height="107" viewBox="0 0 128 107" fill="none" xmlns="http://www.w3.org/2000/svg">
<path d="M0 8C0 3.58172 3.58172 0 8 0H120C124.418 0 128 3.58172 128 8V99C128 103.418 124.418 107 120 107H0V8Z" fill="#EBEFF5"/>
<path d="M12.0898 21H10.6895V13.6348H8.16992V12.4336H14.6094V13.6348H12.0898V21ZM18.6113 21.1172C17.6035 21.1172 16.8145 20.8242 16.2441 20.2383C15.6777 19.6484 15.3945 18.8379 15.3945 17.8066C15.3945 16.748 15.6582 15.916 16.1855 15.3105C16.7129 14.7051 17.4375 14.4023 18.3594 14.4023C19.2148 14.4023 19.8906 14.6621 20.3867 15.1816C20.8828 15.7012 21.1309 16.416 21.1309 17.3262V18.0703H16.8125C16.832 18.6992 17.002 19.1836 17.3223 19.5234C17.6426 19.8594 18.0938 20.0273 18.6758 20.0273C19.0586 20.0273 19.4141 19.9922 19.7422 19.9219C20.0742 19.8477 20.4297 19.7266 20.8086 19.5586V20.6777C20.4727 20.8379 20.1328 20.9512 19.7891 21.0176C19.4453 21.084 19.0527 21.1172 18.6113 21.1172ZM18.3594 15.4453C17.9219 15.4453 17.5703 15.584 17.3047 15.8613C17.043 16.1387 16.8867 16.543 16.8359 17.0742H19.7773C19.7695 16.5391 19.6406 16.1348 19.3906 15.8613C19.1406 15.584 18.7969 15.4453 18.3594 15.4453ZM28.3965 21H27.0137V17.0156C27.0137 16.5156 26.9121 16.1426 26.709 15.8965C26.5098 15.6504 26.1914 15.5273 25.7539 15.5273C25.1719 15.5273 24.7461 15.6992 24.4766 16.043C24.207 16.3867 24.0723 16.9629 24.0723 17.7715V21H22.6953V14.5195H23.7734L23.9668 15.3691H24.0371C24.2324 15.0605 24.5098 14.8223 24.8691 14.6543C25.2285 14.4863 25.627 14.4023 26.0645 14.4023C27.6191 14.4023 28.3965 15.1934 28.3965 16.7754V21ZM31.6895 21H30.3125V14.5195H31.6895V21ZM30.2305 12.8027C30.2305 12.5566 30.2969 12.3672 30.4297 12.2344C30.5664 12.1016 30.7598 12.0352 31.0098 12.0352C31.252 12.0352 31.4395 12.1016 31.5723 12.2344C31.709 12.3672 31.7773 12.5566 31.7773 12.8027C31.7773 13.0371 31.709 13.2227 31.5723 13.3594C31.4395 13.4922 31.252 13.5586 31.0098 13.5586C30.7598 13.5586 30.5664 13.4922 30.4297 13.3594C30.2969 13.2227 30.2305 13.0371 30.2305 12.8027Z" fill="#203B64"/>
<rect opacity="0.7" x="8" y="32" width="113" height="67" rx="8" fill="white"/>
<path d="M54.6667 54C53.9594 54 53.2811 54.281 52.781 54.781C52.281 55.2811 52 55.9594 52 56.6667V75.3333C52 76.0406 52.281 76.7188 52.781 77.2189C53.2811 77.719 53.9594 78 54.6667 78H66.7867C66.7067 77.56 66.6667 77.12 66.6667 76.6667C66.6667 75.76 66.8267 74.8533 67.1333 74H54.6667L59.3333 68L62.6667 72L67.3333 66L70.3067 69.96C71.6 69.12 73.12 68.6667 74.6667 68.6667C75.12 68.6667 75.56 68.7067 76 68.7867V56.6667C76 55.9594 75.719 55.2811 75.2189 54.781C74.7188 54.281 74.0406 54 73.3333 54H54.6667ZM73.3333 71.3333V75.3333H69.3333V78H73.3333V82H76V78H80V75.3333H76V71.3333H73.3333Z" fill="#FF5841"/>
</svg>
