<svg width="299" height="115" viewBox="0 0 299 115" fill="none" xmlns="http://www.w3.org/2000/svg">
<rect width="299" height="115" fill="#EDF0F3"/>
<rect x="7" y="41" width="285" height="74" fill="white"/>
<path d="M14 16C14 11.5817 17.5817 8 22 8H95C99.4183 8 103 11.5817 103 16V43H14V16Z" fill="white"/>
<path d="M32.9727 31H27.3193V21.0059H32.9727V22.3867H28.9531V25.1074H32.7197V26.4746H28.9531V29.6123H32.9727V31ZM38.8037 31.1367C37.8467 31.1367 37.1038 30.7926 36.5752 30.1045H36.4795C36.5433 30.7425 36.5752 31.1299 36.5752 31.2666V34.3633H34.9688V23.4395H36.2676C36.304 23.5807 36.3792 23.918 36.4932 24.4512H36.5752C37.0765 23.6855 37.8285 23.3027 38.8311 23.3027C39.7744 23.3027 40.5081 23.6445 41.0322 24.3281C41.5609 25.0117 41.8252 25.971 41.8252 27.2061C41.8252 28.4411 41.5563 29.4049 41.0186 30.0977C40.4854 30.7904 39.7471 31.1367 38.8037 31.1367ZM38.4141 24.6152C37.776 24.6152 37.3089 24.8021 37.0127 25.1758C36.721 25.5495 36.5752 26.1465 36.5752 26.9668V27.2061C36.5752 28.1266 36.721 28.7943 37.0127 29.209C37.3044 29.6191 37.7806 29.8242 38.4414 29.8242C38.9974 29.8242 39.4258 29.5964 39.7266 29.1406C40.0273 28.6849 40.1777 28.0355 40.1777 27.1924C40.1777 26.3447 40.0273 25.7044 39.7266 25.2715C39.4303 24.834 38.9928 24.6152 38.4141 24.6152ZM45.2979 31H43.6914V23.4395H45.2979V31ZM43.5957 21.4365C43.5957 21.1494 43.6732 20.9284 43.8281 20.7734C43.9876 20.6185 44.2132 20.541 44.5049 20.541C44.7874 20.541 45.0062 20.6185 45.1611 20.7734C45.3206 20.9284 45.4004 21.1494 45.4004 21.4365C45.4004 21.71 45.3206 21.9264 45.1611 22.0859C45.0062 22.2409 44.7874 22.3184 44.5049 22.3184C44.2132 22.3184 43.9876 22.2409 43.8281 22.0859C43.6732 21.9264 43.5957 21.71 43.5957 21.4365ZM52.6807 28.8467C52.6807 29.585 52.4118 30.1523 51.874 30.5488C51.3363 30.9408 50.5661 31.1367 49.5635 31.1367C48.5563 31.1367 47.7474 30.984 47.1367 30.6787V29.291C48.0254 29.7012 48.8525 29.9062 49.6182 29.9062C50.6071 29.9062 51.1016 29.6077 51.1016 29.0107C51.1016 28.8193 51.0469 28.6598 50.9375 28.5322C50.8281 28.4046 50.6481 28.2725 50.3975 28.1357C50.1468 27.999 49.7982 27.8441 49.3516 27.6709C48.4811 27.3337 47.891 26.9964 47.5811 26.6592C47.2757 26.3219 47.123 25.8844 47.123 25.3467C47.123 24.6995 47.3828 24.1982 47.9023 23.8428C48.4264 23.4827 49.1374 23.3027 50.0352 23.3027C50.9238 23.3027 51.7646 23.4827 52.5576 23.8428L52.0381 25.0527C51.2223 24.7155 50.5365 24.5469 49.9805 24.5469C49.1328 24.5469 48.709 24.7884 48.709 25.2715C48.709 25.5085 48.8184 25.709 49.0371 25.873C49.2604 26.0371 49.7435 26.2627 50.4863 26.5498C51.1107 26.7913 51.5641 27.0124 51.8467 27.2129C52.1292 27.4134 52.3389 27.6458 52.4756 27.9102C52.6123 28.1699 52.6807 28.4821 52.6807 28.8467ZM61.1299 27.2061C61.1299 28.4411 60.8132 29.4049 60.1797 30.0977C59.5462 30.7904 58.6644 31.1367 57.5342 31.1367C56.8278 31.1367 56.2035 30.9772 55.6611 30.6582C55.1188 30.3392 54.7018 29.8812 54.4102 29.2842C54.1185 28.6872 53.9727 27.9945 53.9727 27.2061C53.9727 25.9801 54.2871 25.0231 54.916 24.335C55.5449 23.6468 56.4313 23.3027 57.5752 23.3027C58.6689 23.3027 59.5348 23.6559 60.1729 24.3623C60.8109 25.0641 61.1299 26.012 61.1299 27.2061ZM55.627 27.2061C55.627 28.9515 56.2718 29.8242 57.5615 29.8242C58.8376 29.8242 59.4756 28.9515 59.4756 27.2061C59.4756 25.4788 58.833 24.6152 57.5479 24.6152C56.8734 24.6152 56.3835 24.8385 56.0781 25.2852C55.7773 25.7318 55.627 26.3721 55.627 27.2061ZM65.5322 31.1367C64.5889 31.1367 63.8529 30.7949 63.3242 30.1113C62.7956 29.4277 62.5312 28.4684 62.5312 27.2334C62.5312 25.9938 62.7979 25.0299 63.3311 24.3418C63.8688 23.6491 64.6117 23.3027 65.5596 23.3027C66.5531 23.3027 67.3096 23.6696 67.8291 24.4033H67.9111C67.8337 23.861 67.7949 23.4326 67.7949 23.1182V20.3633H69.4082V31H68.1504L67.8701 30.0088H67.7949C67.2799 30.7607 66.5257 31.1367 65.5322 31.1367ZM65.9629 29.8379C66.6237 29.8379 67.1045 29.6533 67.4053 29.2842C67.7061 28.9105 67.861 28.3066 67.8701 27.4727V27.2471C67.8701 26.2946 67.7152 25.6178 67.4053 25.2168C67.0954 24.8158 66.61 24.6152 65.9492 24.6152C65.3841 24.6152 64.9489 24.8454 64.6436 25.3057C64.3382 25.7614 64.1855 26.4131 64.1855 27.2607C64.1855 28.0993 64.3337 28.7396 64.6299 29.1816C64.9261 29.6191 65.3704 29.8379 65.9629 29.8379ZM75.0068 31.1367C73.8311 31.1367 72.9105 30.7949 72.2451 30.1113C71.5843 29.4232 71.2539 28.4775 71.2539 27.2744C71.2539 26.0394 71.5615 25.0687 72.1768 24.3623C72.792 23.6559 73.6374 23.3027 74.7129 23.3027C75.7109 23.3027 76.4993 23.6058 77.0781 24.2119C77.6569 24.818 77.9463 25.652 77.9463 26.7139V27.582H72.9082C72.931 28.3158 73.1292 28.8809 73.5029 29.2773C73.8766 29.6693 74.403 29.8652 75.082 29.8652C75.5286 29.8652 75.9434 29.8242 76.3262 29.7422C76.7135 29.6556 77.1283 29.5143 77.5703 29.3184V30.624C77.1784 30.8109 76.7819 30.943 76.3809 31.0205C75.9798 31.098 75.5218 31.1367 75.0068 31.1367ZM74.7129 24.5195C74.2025 24.5195 73.7923 24.6813 73.4824 25.0049C73.1771 25.3285 72.9948 25.8001 72.9355 26.4199H76.3672C76.3581 25.7956 76.2077 25.3239 75.916 25.0049C75.6243 24.6813 75.2233 24.5195 74.7129 24.5195ZM87.5918 31H85.9854V24.5469C85.9854 23.7767 86.0036 23.166 86.04 22.7148C85.9352 22.8242 85.8053 22.945 85.6504 23.0771C85.5 23.2093 84.9896 23.6286 84.1191 24.335L83.3125 23.3164L86.252 21.0059H87.5918V31Z" fill="#FF5841"/>
<path d="M111 16C111 11.5817 114.582 8 119 8H191C195.418 8 199 11.5817 199 16V41H111V16Z" fill="#F1F5F9"/>
<path d="M129.945 30H124.374V20.0059H129.945V21.0381H125.536V24.2578H129.679V25.2832H125.536V28.9609H129.945V30ZM135.482 30.1367C134.995 30.1367 134.548 30.0479 134.143 29.8701C133.742 29.6878 133.404 29.4098 133.131 29.0361H133.049C133.104 29.4736 133.131 29.8883 133.131 30.2803V33.3633H131.996V22.5078H132.919L133.076 23.5332H133.131C133.423 23.123 133.762 22.8268 134.149 22.6445C134.537 22.4622 134.981 22.3711 135.482 22.3711C136.476 22.3711 137.242 22.7106 137.779 23.3896C138.322 24.0687 138.593 25.0212 138.593 26.2471C138.593 27.4775 138.317 28.4346 137.766 29.1182C137.219 29.7972 136.458 30.1367 135.482 30.1367ZM135.318 23.335C134.553 23.335 133.999 23.5469 133.657 23.9707C133.315 24.3945 133.14 25.069 133.131 25.9941V26.2471C133.131 27.2998 133.306 28.054 133.657 28.5098C134.008 28.9609 134.571 29.1865 135.346 29.1865C135.993 29.1865 136.499 28.9245 136.863 28.4004C137.232 27.8763 137.417 27.154 137.417 26.2334C137.417 25.2992 137.232 24.5837 136.863 24.0869C136.499 23.5856 135.984 23.335 135.318 23.335ZM141.717 30H140.582V22.5078H141.717V30ZM140.486 20.4775C140.486 20.2178 140.55 20.0286 140.678 19.9102C140.805 19.7871 140.965 19.7256 141.156 19.7256C141.339 19.7256 141.496 19.7871 141.628 19.9102C141.76 20.0332 141.826 20.2223 141.826 20.4775C141.826 20.7327 141.76 20.9242 141.628 21.0518C141.496 21.1748 141.339 21.2363 141.156 21.2363C140.965 21.2363 140.805 21.1748 140.678 21.0518C140.55 20.9242 140.486 20.7327 140.486 20.4775ZM148.956 27.9561C148.956 28.6533 148.696 29.1911 148.177 29.5693C147.657 29.9476 146.928 30.1367 145.989 30.1367C144.996 30.1367 144.221 29.9795 143.665 29.665V28.6123C144.025 28.7946 144.41 28.9382 144.82 29.043C145.235 29.1478 145.634 29.2002 146.017 29.2002C146.609 29.2002 147.065 29.1068 147.384 28.9199C147.703 28.7285 147.862 28.4391 147.862 28.0518C147.862 27.7601 147.735 27.5117 147.479 27.3066C147.229 27.097 146.737 26.8509 146.003 26.5684C145.306 26.3086 144.809 26.083 144.513 25.8916C144.221 25.6956 144.002 25.4746 143.856 25.2285C143.715 24.9824 143.645 24.6885 143.645 24.3467C143.645 23.736 143.893 23.2552 144.39 22.9043C144.886 22.5488 145.568 22.3711 146.434 22.3711C147.24 22.3711 148.029 22.5352 148.799 22.8633L148.396 23.7861C147.644 23.4762 146.962 23.3213 146.352 23.3213C145.814 23.3213 145.408 23.4056 145.135 23.5742C144.861 23.7428 144.725 23.9753 144.725 24.2715C144.725 24.472 144.775 24.6429 144.875 24.7842C144.98 24.9255 145.146 25.0599 145.374 25.1875C145.602 25.3151 146.039 25.4997 146.687 25.7412C147.575 26.0648 148.174 26.3906 148.484 26.7188C148.799 27.0469 148.956 27.4593 148.956 27.9561ZM157.275 26.2471C157.275 27.4684 156.968 28.4232 156.353 29.1113C155.737 29.7949 154.887 30.1367 153.803 30.1367C153.133 30.1367 152.538 29.9795 152.019 29.665C151.499 29.3506 151.098 28.8994 150.815 28.3115C150.533 27.7236 150.392 27.0355 150.392 26.2471C150.392 25.0257 150.697 24.0755 151.308 23.3965C151.918 22.7129 152.766 22.3711 153.851 22.3711C154.899 22.3711 155.73 22.7197 156.346 23.417C156.965 24.1143 157.275 25.0576 157.275 26.2471ZM151.567 26.2471C151.567 27.2041 151.759 27.9333 152.142 28.4346C152.524 28.9359 153.087 29.1865 153.83 29.1865C154.573 29.1865 155.136 28.9382 155.519 28.4414C155.906 27.9401 156.1 27.2087 156.1 26.2471C156.1 25.2946 155.906 24.5723 155.519 24.0801C155.136 23.5833 154.568 23.335 153.816 23.335C153.074 23.335 152.513 23.5788 152.135 24.0664C151.757 24.554 151.567 25.2809 151.567 26.2471ZM164.371 28.9951H164.31C163.785 29.7562 163.002 30.1367 161.958 30.1367C160.978 30.1367 160.215 29.8018 159.668 29.1318C159.126 28.4619 158.854 27.5094 158.854 26.2744C158.854 25.0394 159.128 24.0801 159.675 23.3965C160.222 22.7129 160.983 22.3711 161.958 22.3711C162.974 22.3711 163.754 22.7402 164.296 23.4785H164.385L164.337 22.9385L164.31 22.4121V19.3633H165.444V30H164.521L164.371 28.9951ZM162.102 29.1865C162.876 29.1865 163.437 28.9769 163.783 28.5576C164.134 28.1338 164.31 27.4525 164.31 26.5137V26.2744C164.31 25.2126 164.132 24.4561 163.776 24.0049C163.425 23.5492 162.863 23.3213 162.088 23.3213C161.423 23.3213 160.912 23.5811 160.557 24.1006C160.206 24.6156 160.03 25.3447 160.03 26.2881C160.03 27.2451 160.206 27.9674 160.557 28.4551C160.908 28.9427 161.423 29.1865 162.102 29.1865ZM171.022 30.1367C169.915 30.1367 169.04 29.7995 168.397 29.125C167.759 28.4505 167.44 27.514 167.44 26.3154C167.44 25.1077 167.737 24.1484 168.329 23.4375C168.926 22.7266 169.726 22.3711 170.729 22.3711C171.667 22.3711 172.41 22.681 172.957 23.3008C173.504 23.916 173.777 24.7295 173.777 25.7412V26.459H168.616C168.639 27.3385 168.86 28.0062 169.279 28.4619C169.703 28.9176 170.298 29.1455 171.063 29.1455C171.87 29.1455 172.668 28.9769 173.456 28.6396V29.6514C173.055 29.8245 172.674 29.9476 172.314 30.0205C171.959 30.098 171.528 30.1367 171.022 30.1367ZM170.715 23.3213C170.113 23.3213 169.632 23.5173 169.272 23.9092C168.917 24.3011 168.707 24.8434 168.644 25.5361H172.561C172.561 24.8206 172.401 24.2738 172.082 23.8955C171.763 23.5127 171.307 23.3213 170.715 23.3213ZM185.405 30H178.836V29.0225L181.468 26.377C182.27 25.5658 182.799 24.987 183.054 24.6406C183.309 24.2943 183.5 23.957 183.628 23.6289C183.756 23.3008 183.819 22.9476 183.819 22.5693C183.819 22.0361 183.658 21.6146 183.334 21.3047C183.01 20.9902 182.562 20.833 181.987 20.833C181.573 20.833 181.178 20.9014 180.805 21.0381C180.436 21.1748 180.023 21.4232 179.567 21.7832L178.966 21.0107C179.886 20.2451 180.889 19.8623 181.974 19.8623C182.912 19.8623 183.648 20.1038 184.182 20.5869C184.715 21.0654 184.981 21.7103 184.981 22.5215C184.981 23.1549 184.804 23.7816 184.448 24.4014C184.093 25.0212 183.427 25.805 182.452 26.7529L180.265 28.8926V28.9473H185.405V30Z" fill="#212D40" fill-opacity="0.5"/>
<path d="M43.5176 72H42.3555V63.0381H39.1904V62.0059H46.6826V63.0381H43.5176V72ZM53.1494 72V67.1533C53.1494 66.5426 53.0104 66.0869 52.7324 65.7861C52.4544 65.4854 52.0192 65.335 51.4268 65.335C50.6383 65.335 50.0618 65.5492 49.6973 65.9775C49.3372 66.4059 49.1572 67.1077 49.1572 68.083V72H48.0225V61.3633H49.1572V64.583C49.1572 64.9704 49.139 65.2917 49.1025 65.5469H49.1709C49.3942 65.1868 49.7109 64.9043 50.1211 64.6992C50.5358 64.4896 51.0075 64.3848 51.5361 64.3848C52.4521 64.3848 53.138 64.6035 53.5938 65.041C54.054 65.474 54.2842 66.1644 54.2842 67.1123V72H53.1494ZM57.7568 72H56.6221V64.5078H57.7568V72ZM56.5264 62.4775C56.5264 62.2178 56.5902 62.0286 56.7178 61.9102C56.8454 61.7871 57.0049 61.7256 57.1963 61.7256C57.3786 61.7256 57.5358 61.7871 57.668 61.9102C57.8001 62.0332 57.8662 62.2223 57.8662 62.4775C57.8662 62.7327 57.8001 62.9242 57.668 63.0518C57.5358 63.1748 57.3786 63.2363 57.1963 63.2363C57.0049 63.2363 56.8454 63.1748 56.7178 63.0518C56.5902 62.9242 56.5264 62.7327 56.5264 62.4775ZM64.9961 69.9561C64.9961 70.6533 64.7363 71.1911 64.2168 71.5693C63.6973 71.9476 62.9681 72.1367 62.0293 72.1367C61.0358 72.1367 60.2611 71.9795 59.7051 71.665V70.6123C60.0651 70.7946 60.4502 70.9382 60.8604 71.043C61.2751 71.1478 61.6738 71.2002 62.0566 71.2002C62.6491 71.2002 63.1048 71.1068 63.4238 70.9199C63.7428 70.7285 63.9023 70.4391 63.9023 70.0518C63.9023 69.7601 63.7747 69.5117 63.5195 69.3066C63.2689 69.097 62.7767 68.8509 62.043 68.5684C61.3457 68.3086 60.849 68.083 60.5527 67.8916C60.2611 67.6956 60.0423 67.4746 59.8965 67.2285C59.7552 66.9824 59.6846 66.6885 59.6846 66.3467C59.6846 65.736 59.9329 65.2552 60.4297 64.9043C60.9264 64.5488 61.6077 64.3711 62.4736 64.3711C63.2803 64.3711 64.0687 64.5352 64.8389 64.8633L64.4355 65.7861C63.6836 65.4762 63.0023 65.3213 62.3916 65.3213C61.8538 65.3213 61.4482 65.4056 61.1748 65.5742C60.9014 65.7428 60.7646 65.9753 60.7646 66.2715C60.7646 66.472 60.8148 66.6429 60.915 66.7842C61.0199 66.9255 61.1862 67.0599 61.4141 67.1875C61.6419 67.3151 62.0794 67.4997 62.7266 67.7412C63.6152 68.0648 64.2145 68.3906 64.5244 68.7188C64.8389 69.0469 64.9961 69.4593 64.9961 69.9561ZM75.3184 69.9561C75.3184 70.6533 75.0586 71.1911 74.5391 71.5693C74.0195 71.9476 73.2904 72.1367 72.3516 72.1367C71.3581 72.1367 70.5833 71.9795 70.0273 71.665V70.6123C70.3874 70.7946 70.7725 70.9382 71.1826 71.043C71.5973 71.1478 71.9961 71.2002 72.3789 71.2002C72.9714 71.2002 73.4271 71.1068 73.7461 70.9199C74.0651 70.7285 74.2246 70.4391 74.2246 70.0518C74.2246 69.7601 74.097 69.5117 73.8418 69.3066C73.5911 69.097 73.099 68.8509 72.3652 68.5684C71.668 68.3086 71.1712 68.083 70.875 67.8916C70.5833 67.6956 70.3646 67.4746 70.2188 67.2285C70.0775 66.9824 70.0068 66.6885 70.0068 66.3467C70.0068 65.736 70.2552 65.2552 70.752 64.9043C71.2487 64.5488 71.93 64.3711 72.7959 64.3711C73.6025 64.3711 74.391 64.5352 75.1611 64.8633L74.7578 65.7861C74.0059 65.4762 73.3245 65.3213 72.7139 65.3213C72.1761 65.3213 71.7705 65.4056 71.4971 65.5742C71.2236 65.7428 71.0869 65.9753 71.0869 66.2715C71.0869 66.472 71.137 66.6429 71.2373 66.7842C71.3421 66.9255 71.5085 67.0599 71.7363 67.1875C71.9642 67.3151 72.4017 67.4997 73.0488 67.7412C73.9375 68.0648 74.5368 68.3906 74.8467 68.7188C75.1611 69.0469 75.3184 69.4593 75.3184 69.9561ZM80.6572 72.1367C80.1696 72.1367 79.723 72.0479 79.3174 71.8701C78.9163 71.6878 78.5791 71.4098 78.3057 71.0361H78.2236C78.2783 71.4736 78.3057 71.8883 78.3057 72.2803V75.3633H77.1709V64.5078H78.0938L78.251 65.5332H78.3057C78.5973 65.123 78.9368 64.8268 79.3242 64.6445C79.7116 64.4622 80.1559 64.3711 80.6572 64.3711C81.6507 64.3711 82.4163 64.7106 82.9541 65.3896C83.4964 66.0687 83.7676 67.0212 83.7676 68.2471C83.7676 69.4775 83.4919 70.4346 82.9404 71.1182C82.3936 71.7972 81.6325 72.1367 80.6572 72.1367ZM80.4932 65.335C79.7275 65.335 79.1738 65.5469 78.832 65.9707C78.4902 66.3945 78.3148 67.069 78.3057 67.9941V68.2471C78.3057 69.2998 78.4811 70.054 78.832 70.5098C79.1829 70.9609 79.7458 71.1865 80.5205 71.1865C81.1676 71.1865 81.6735 70.9245 82.0381 70.4004C82.4072 69.8763 82.5918 69.154 82.5918 68.2334C82.5918 67.2992 82.4072 66.5837 82.0381 66.0869C81.6735 65.5856 81.1585 65.335 80.4932 65.335ZM86.8916 72H85.7568V61.3633H86.8916V72ZM90.4326 72H89.2979V64.5078H90.4326V72ZM89.2021 62.4775C89.2021 62.2178 89.266 62.0286 89.3936 61.9102C89.5212 61.7871 89.6807 61.7256 89.8721 61.7256C90.0544 61.7256 90.2116 61.7871 90.3438 61.9102C90.4759 62.0332 90.542 62.2223 90.542 62.4775C90.542 62.7327 90.4759 62.9242 90.3438 63.0518C90.2116 63.1748 90.0544 63.2363 89.8721 63.2363C89.6807 63.2363 89.5212 63.1748 89.3936 63.0518C89.266 62.9242 89.2021 62.7327 89.2021 62.4775ZM95.2588 71.2002C95.4593 71.2002 95.653 71.1865 95.8398 71.1592C96.0267 71.1273 96.1748 71.0954 96.2842 71.0635V71.9316C96.1611 71.9909 95.9788 72.0387 95.7373 72.0752C95.5003 72.1162 95.2861 72.1367 95.0947 72.1367C93.6455 72.1367 92.9209 71.3734 92.9209 69.8467V65.3896H91.8477V64.8428L92.9209 64.3711L93.3994 62.7715H94.0557V64.5078H96.2295V65.3896H94.0557V69.7988C94.0557 70.25 94.1628 70.5964 94.377 70.8379C94.5911 71.0794 94.8851 71.2002 95.2588 71.2002ZM102.621 69.9561C102.621 70.6533 102.361 71.1911 101.842 71.5693C101.322 71.9476 100.593 72.1367 99.6543 72.1367C98.6608 72.1367 97.8861 71.9795 97.3301 71.665V70.6123C97.6901 70.7946 98.0752 70.9382 98.4854 71.043C98.9001 71.1478 99.2988 71.2002 99.6816 71.2002C100.274 71.2002 100.73 71.1068 101.049 70.9199C101.368 70.7285 101.527 70.4391 101.527 70.0518C101.527 69.7601 101.4 69.5117 101.145 69.3066C100.894 69.097 100.402 68.8509 99.668 68.5684C98.9707 68.3086 98.474 68.083 98.1777 67.8916C97.8861 67.6956 97.6673 67.4746 97.5215 67.2285C97.3802 66.9824 97.3096 66.6885 97.3096 66.3467C97.3096 65.736 97.5579 65.2552 98.0547 64.9043C98.5514 64.5488 99.2327 64.3711 100.099 64.3711C100.905 64.3711 101.694 64.5352 102.464 64.8633L102.061 65.7861C101.309 65.4762 100.627 65.3213 100.017 65.3213C99.4788 65.3213 99.0732 65.4056 98.7998 65.5742C98.5264 65.7428 98.3896 65.9753 98.3896 66.2715C98.3896 66.472 98.4398 66.6429 98.54 66.7842C98.6449 66.9255 98.8112 67.0599 99.0391 67.1875C99.2669 67.3151 99.7044 67.4997 100.352 67.7412C101.24 68.0648 101.84 68.3906 102.149 68.7188C102.464 69.0469 102.621 69.4593 102.621 69.9561ZM110.53 71.2002C110.731 71.2002 110.924 71.1865 111.111 71.1592C111.298 71.1273 111.446 71.0954 111.556 71.0635V71.9316C111.433 71.9909 111.25 72.0387 111.009 72.0752C110.772 72.1162 110.558 72.1367 110.366 72.1367C108.917 72.1367 108.192 71.3734 108.192 69.8467V65.3896H107.119V64.8428L108.192 64.3711L108.671 62.7715H109.327V64.5078H111.501V65.3896H109.327V69.7988C109.327 70.25 109.434 70.5964 109.648 70.8379C109.863 71.0794 110.157 71.2002 110.53 71.2002ZM118.187 72V67.1533C118.187 66.5426 118.048 66.0869 117.77 65.7861C117.492 65.4854 117.056 65.335 116.464 65.335C115.675 65.335 115.099 65.5492 114.734 65.9775C114.374 66.4059 114.194 67.1077 114.194 68.083V72H113.06V61.3633H114.194V64.583C114.194 64.9704 114.176 65.2917 114.14 65.5469H114.208C114.431 65.1868 114.748 64.9043 115.158 64.6992C115.573 64.4896 116.045 64.3848 116.573 64.3848C117.489 64.3848 118.175 64.6035 118.631 65.041C119.091 65.474 119.321 66.1644 119.321 67.1123V72H118.187ZM124.824 72.1367C123.717 72.1367 122.842 71.7995 122.199 71.125C121.561 70.4505 121.242 69.514 121.242 68.3154C121.242 67.1077 121.538 66.1484 122.131 65.4375C122.728 64.7266 123.528 64.3711 124.53 64.3711C125.469 64.3711 126.212 64.681 126.759 65.3008C127.306 65.916 127.579 66.7295 127.579 67.7412V68.459H122.418C122.441 69.3385 122.662 70.0062 123.081 70.4619C123.505 70.9176 124.1 71.1455 124.865 71.1455C125.672 71.1455 126.469 70.9769 127.258 70.6396V71.6514C126.857 71.8245 126.476 71.9476 126.116 72.0205C125.761 72.098 125.33 72.1367 124.824 72.1367ZM124.517 65.3213C123.915 65.3213 123.434 65.5173 123.074 65.9092C122.719 66.3011 122.509 66.8434 122.445 67.5361H126.362C126.362 66.8206 126.203 66.2738 125.884 65.8955C125.565 65.5127 125.109 65.3213 124.517 65.3213ZM137.99 69.9561C137.99 70.6533 137.73 71.1911 137.211 71.5693C136.691 71.9476 135.962 72.1367 135.023 72.1367C134.03 72.1367 133.255 71.9795 132.699 71.665V70.6123C133.059 70.7946 133.444 70.9382 133.854 71.043C134.269 71.1478 134.668 71.2002 135.051 71.2002C135.643 71.2002 136.099 71.1068 136.418 70.9199C136.737 70.7285 136.896 70.4391 136.896 70.0518C136.896 69.7601 136.769 69.5117 136.514 69.3066C136.263 69.097 135.771 68.8509 135.037 68.5684C134.34 68.3086 133.843 68.083 133.547 67.8916C133.255 67.6956 133.036 67.4746 132.891 67.2285C132.749 66.9824 132.679 66.6885 132.679 66.3467C132.679 65.736 132.927 65.2552 133.424 64.9043C133.921 64.5488 134.602 64.3711 135.468 64.3711C136.274 64.3711 137.063 64.5352 137.833 64.8633L137.43 65.7861C136.678 65.4762 135.996 65.3213 135.386 65.3213C134.848 65.3213 134.442 65.4056 134.169 65.5742C133.896 65.7428 133.759 65.9753 133.759 66.2715C133.759 66.472 133.809 66.6429 133.909 66.7842C134.014 66.9255 134.18 67.0599 134.408 67.1875C134.636 67.3151 135.074 67.4997 135.721 67.7412C136.609 68.0648 137.209 68.3906 137.519 68.7188C137.833 69.0469 137.99 69.4593 137.99 69.9561ZM142.263 71.2002C142.463 71.2002 142.657 71.1865 142.844 71.1592C143.031 71.1273 143.179 71.0954 143.288 71.0635V71.9316C143.165 71.9909 142.983 72.0387 142.741 72.0752C142.504 72.1162 142.29 72.1367 142.099 72.1367C140.649 72.1367 139.925 71.3734 139.925 69.8467V65.3896H138.852V64.8428L139.925 64.3711L140.403 62.7715H141.06V64.5078H143.233V65.3896H141.06V69.7988C141.06 70.25 141.167 70.5964 141.381 70.8379C141.595 71.0794 141.889 71.2002 142.263 71.2002ZM151.259 68.2471C151.259 69.4684 150.951 70.4232 150.336 71.1113C149.721 71.7949 148.871 72.1367 147.786 72.1367C147.116 72.1367 146.521 71.9795 146.002 71.665C145.482 71.3506 145.081 70.8994 144.799 70.3115C144.516 69.7236 144.375 69.0355 144.375 68.2471C144.375 67.0257 144.68 66.0755 145.291 65.3965C145.902 64.7129 146.749 64.3711 147.834 64.3711C148.882 64.3711 149.714 64.7197 150.329 65.417C150.949 66.1143 151.259 67.0576 151.259 68.2471ZM145.551 68.2471C145.551 69.2041 145.742 69.9333 146.125 70.4346C146.508 70.9359 147.071 71.1865 147.813 71.1865C148.556 71.1865 149.119 70.9382 149.502 70.4414C149.889 69.9401 150.083 69.2087 150.083 68.2471C150.083 67.2946 149.889 66.5723 149.502 66.0801C149.119 65.5833 148.552 65.335 147.8 65.335C147.057 65.335 146.496 65.5788 146.118 66.0664C145.74 66.554 145.551 67.2809 145.551 68.2471ZM156.673 64.3711C157.006 64.3711 157.304 64.3984 157.568 64.4531L157.411 65.5059C157.101 65.4375 156.828 65.4033 156.591 65.4033C155.985 65.4033 155.465 65.6494 155.032 66.1416C154.604 66.6338 154.39 67.2467 154.39 67.9805V72H153.255V64.5078H154.191L154.321 65.8955H154.376C154.654 65.4079 154.989 65.0319 155.381 64.7676C155.773 64.5033 156.203 64.3711 156.673 64.3711ZM157.78 64.5078H158.997L160.638 68.7803C160.998 69.7555 161.221 70.4596 161.308 70.8926H161.362C161.422 70.6602 161.545 70.2637 161.731 69.7031C161.923 69.138 162.543 67.4062 163.591 64.5078H164.808L161.588 73.0391C161.269 73.8822 160.895 74.4792 160.467 74.8301C160.043 75.1855 159.521 75.3633 158.901 75.3633C158.555 75.3633 158.213 75.3245 157.876 75.2471V74.3379C158.127 74.3926 158.407 74.4199 158.717 74.4199C159.496 74.4199 160.052 73.9824 160.385 73.1074L160.802 72.041L157.78 64.5078ZM170.796 72H169.661V64.5078H170.796V72ZM169.565 62.4775C169.565 62.2178 169.629 62.0286 169.757 61.9102C169.884 61.7871 170.044 61.7256 170.235 61.7256C170.418 61.7256 170.575 61.7871 170.707 61.9102C170.839 62.0332 170.905 62.2223 170.905 62.4775C170.905 62.7327 170.839 62.9242 170.707 63.0518C170.575 63.1748 170.418 63.2363 170.235 63.2363C170.044 63.2363 169.884 63.1748 169.757 63.0518C169.629 62.9242 169.565 62.7327 169.565 62.4775ZM178.329 72V67.1533C178.329 66.5426 178.19 66.0869 177.912 65.7861C177.634 65.4854 177.199 65.335 176.606 65.335C175.823 65.335 175.248 65.5469 174.884 65.9707C174.519 66.3945 174.337 67.0941 174.337 68.0693V72H173.202V64.5078H174.125L174.31 65.5332H174.364C174.597 65.1641 174.923 64.8792 175.342 64.6787C175.761 64.4736 176.228 64.3711 176.743 64.3711C177.646 64.3711 178.325 64.5898 178.78 65.0273C179.236 65.4603 179.464 66.1553 179.464 67.1123V72H178.329ZM184.222 71.2002C184.422 71.2002 184.616 71.1865 184.803 71.1592C184.99 71.1273 185.138 71.0954 185.247 71.0635V71.9316C185.124 71.9909 184.942 72.0387 184.7 72.0752C184.463 72.1162 184.249 72.1367 184.058 72.1367C182.608 72.1367 181.884 71.3734 181.884 69.8467V65.3896H180.811V64.8428L181.884 64.3711L182.362 62.7715H183.019V64.5078H185.192V65.3896H183.019V69.7988C183.019 70.25 183.126 70.5964 183.34 70.8379C183.554 71.0794 183.848 71.2002 184.222 71.2002ZM193.218 68.2471C193.218 69.4684 192.91 70.4232 192.295 71.1113C191.68 71.7949 190.83 72.1367 189.745 72.1367C189.075 72.1367 188.48 71.9795 187.961 71.665C187.441 71.3506 187.04 70.8994 186.758 70.3115C186.475 69.7236 186.334 69.0355 186.334 68.2471C186.334 67.0257 186.639 66.0755 187.25 65.3965C187.861 64.7129 188.708 64.3711 189.793 64.3711C190.841 64.3711 191.673 64.7197 192.288 65.417C192.908 66.1143 193.218 67.0576 193.218 68.2471ZM187.51 68.2471C187.51 69.2041 187.701 69.9333 188.084 70.4346C188.467 70.9359 189.03 71.1865 189.772 71.1865C190.515 71.1865 191.078 70.9382 191.461 70.4414C191.848 69.9401 192.042 69.2087 192.042 68.2471C192.042 67.2946 191.848 66.5723 191.461 66.0801C191.078 65.5833 190.511 65.335 189.759 65.335C189.016 65.335 188.455 65.5788 188.077 66.0664C187.699 66.554 187.51 67.2809 187.51 68.2471ZM208.4 72V67.126C208.4 66.529 208.273 66.0824 208.018 65.7861C207.762 65.4854 207.366 65.335 206.828 65.335C206.122 65.335 205.6 65.5378 205.263 65.9434C204.925 66.349 204.757 66.9733 204.757 67.8164V72H203.622V67.126C203.622 66.529 203.494 66.0824 203.239 65.7861C202.984 65.4854 202.585 65.335 202.043 65.335C201.332 65.335 200.81 65.5492 200.478 65.9775C200.149 66.4014 199.985 67.0986 199.985 68.0693V72H198.851V64.5078H199.773L199.958 65.5332H200.013C200.227 65.1686 200.528 64.8838 200.915 64.6787C201.307 64.4736 201.744 64.3711 202.228 64.3711C203.399 64.3711 204.164 64.7949 204.524 65.6426H204.579C204.802 65.2507 205.126 64.9408 205.55 64.7129C205.974 64.485 206.457 64.3711 206.999 64.3711C207.847 64.3711 208.48 64.5898 208.899 65.0273C209.323 65.4603 209.535 66.1553 209.535 67.1123V72H208.4ZM212.946 64.5078V69.3682C212.946 69.9788 213.085 70.4346 213.363 70.7354C213.641 71.0361 214.076 71.1865 214.669 71.1865C215.453 71.1865 216.025 70.9723 216.385 70.5439C216.749 70.1156 216.932 69.416 216.932 68.4453V64.5078H218.066V72H217.13L216.966 70.9951H216.904C216.672 71.3643 216.348 71.6468 215.934 71.8428C215.523 72.0387 215.054 72.1367 214.525 72.1367C213.614 72.1367 212.93 71.9202 212.475 71.4873C212.023 71.0544 211.798 70.3617 211.798 69.4092V64.5078H212.946ZM221.614 72H220.479V61.3633H221.614V72ZM226.44 71.2002C226.641 71.2002 226.835 71.1865 227.021 71.1592C227.208 71.1273 227.356 71.0954 227.466 71.0635V71.9316C227.343 71.9909 227.16 72.0387 226.919 72.0752C226.682 72.1162 226.468 72.1367 226.276 72.1367C224.827 72.1367 224.103 71.3734 224.103 69.8467V65.3896H223.029V64.8428L224.103 64.3711L224.581 62.7715H225.237V64.5078H227.411V65.3896H225.237V69.7988C225.237 70.25 225.344 70.5964 225.559 70.8379C225.773 71.0794 226.067 71.2002 226.44 71.2002ZM230.104 72H228.97V64.5078H230.104V72ZM228.874 62.4775C228.874 62.2178 228.938 62.0286 229.065 61.9102C229.193 61.7871 229.353 61.7256 229.544 61.7256C229.726 61.7256 229.883 61.7871 230.016 61.9102C230.148 62.0332 230.214 62.2223 230.214 62.4775C230.214 62.7327 230.148 62.9242 230.016 63.0518C229.883 63.1748 229.726 63.2363 229.544 63.2363C229.353 63.2363 229.193 63.1748 229.065 63.0518C228.938 62.9242 228.874 62.7327 228.874 62.4775ZM235.997 72.1367C235.509 72.1367 235.063 72.0479 234.657 71.8701C234.256 71.6878 233.919 71.4098 233.646 71.0361H233.563C233.618 71.4736 233.646 71.8883 233.646 72.2803V75.3633H232.511V64.5078H233.434L233.591 65.5332H233.646C233.937 65.123 234.277 64.8268 234.664 64.6445C235.051 64.4622 235.496 64.3711 235.997 64.3711C236.991 64.3711 237.756 64.7106 238.294 65.3896C238.836 66.0687 239.107 67.0212 239.107 68.2471C239.107 69.4775 238.832 70.4346 238.28 71.1182C237.733 71.7972 236.972 72.1367 235.997 72.1367ZM235.833 65.335C235.067 65.335 234.514 65.5469 234.172 65.9707C233.83 66.3945 233.655 67.069 233.646 67.9941V68.2471C233.646 69.2998 233.821 70.054 234.172 70.5098C234.523 70.9609 235.086 71.1865 235.86 71.1865C236.507 71.1865 237.013 70.9245 237.378 70.4004C237.747 69.8763 237.932 69.154 237.932 68.2334C237.932 67.2992 237.747 66.5837 237.378 66.0869C237.013 65.5856 236.498 65.335 235.833 65.335ZM242.231 72H241.097V61.3633H242.231V72ZM247.803 72.1367C246.695 72.1367 245.82 71.7995 245.178 71.125C244.54 70.4505 244.221 69.514 244.221 68.3154C244.221 67.1077 244.517 66.1484 245.109 65.4375C245.706 64.7266 246.506 64.3711 247.509 64.3711C248.448 64.3711 249.19 64.681 249.737 65.3008C250.284 65.916 250.558 66.7295 250.558 67.7412V68.459H245.396C245.419 69.3385 245.64 70.0062 246.06 70.4619C246.483 70.9176 247.078 71.1455 247.844 71.1455C248.65 71.1455 249.448 70.9769 250.236 70.6396V71.6514C249.835 71.8245 249.455 71.9476 249.095 72.0205C248.739 72.098 248.309 72.1367 247.803 72.1367ZM247.495 65.3213C246.894 65.3213 246.413 65.5173 246.053 65.9092C245.697 66.3011 245.488 66.8434 245.424 67.5361H249.341C249.341 66.8206 249.181 66.2738 248.862 65.8955C248.543 65.5127 248.088 65.3213 247.495 65.3213ZM93.0986 94.1367C92.611 94.1367 92.1644 94.0479 91.7588 93.8701C91.3577 93.6878 91.0205 93.4098 90.7471 93.0361H90.665C90.7197 93.4736 90.7471 93.8883 90.7471 94.2803V97.3633H89.6123V86.5078H90.5352L90.6924 87.5332H90.7471C91.0387 87.123 91.3783 86.8268 91.7656 86.6445C92.153 86.4622 92.5973 86.3711 93.0986 86.3711C94.0921 86.3711 94.8577 86.7106 95.3955 87.3896C95.9378 88.0687 96.209 89.0212 96.209 90.2471C96.209 91.4775 95.9333 92.4346 95.3818 93.1182C94.835 93.7972 94.0739 94.1367 93.0986 94.1367ZM92.9346 87.335C92.1689 87.335 91.6152 87.5469 91.2734 87.9707C90.9316 88.3945 90.7562 89.069 90.7471 89.9941V90.2471C90.7471 91.2998 90.9225 92.054 91.2734 92.5098C91.6243 92.9609 92.1872 93.1865 92.9619 93.1865C93.609 93.1865 94.1149 92.9245 94.4795 92.4004C94.8486 91.8763 95.0332 91.154 95.0332 90.2334C95.0332 89.2992 94.8486 88.5837 94.4795 88.0869C94.1149 87.5856 93.5999 87.335 92.9346 87.335ZM102.806 94L102.58 92.9336H102.525C102.152 93.403 101.778 93.722 101.404 93.8906C101.035 94.0547 100.573 94.1367 100.017 94.1367C99.2738 94.1367 98.6904 93.9453 98.2666 93.5625C97.8473 93.1797 97.6377 92.6351 97.6377 91.9287C97.6377 90.4157 98.8477 89.6227 101.268 89.5498L102.539 89.5088V89.0439C102.539 88.4561 102.411 88.0231 102.156 87.7451C101.906 87.4626 101.502 87.3213 100.946 87.3213C100.322 87.3213 99.6156 87.5127 98.8271 87.8955L98.4785 87.0273C98.8477 86.8268 99.251 86.6696 99.6885 86.5557C100.131 86.4417 100.573 86.3848 101.015 86.3848C101.908 86.3848 102.569 86.583 102.997 86.9795C103.43 87.376 103.646 88.0117 103.646 88.8867V94H102.806ZM100.242 93.2002C100.949 93.2002 101.502 93.0065 101.903 92.6191C102.309 92.2318 102.512 91.6895 102.512 90.9922V90.3154L101.377 90.3633C100.475 90.3952 99.8229 90.5365 99.4219 90.7871C99.0254 91.0332 98.8271 91.4183 98.8271 91.9424C98.8271 92.3525 98.9502 92.6647 99.1963 92.8789C99.4469 93.0931 99.7956 93.2002 100.242 93.2002ZM109.409 86.3711C109.742 86.3711 110.04 86.3984 110.305 86.4531L110.147 87.5059C109.838 87.4375 109.564 87.4033 109.327 87.4033C108.721 87.4033 108.201 87.6494 107.769 88.1416C107.34 88.6338 107.126 89.2467 107.126 89.9805V94H105.991V86.5078H106.928L107.058 87.8955H107.112C107.39 87.4079 107.725 87.0319 108.117 86.7676C108.509 86.5033 108.94 86.3711 109.409 86.3711ZM114.126 93.2002C114.326 93.2002 114.52 93.1865 114.707 93.1592C114.894 93.1273 115.042 93.0954 115.151 93.0635V93.9316C115.028 93.9909 114.846 94.0387 114.604 94.0752C114.368 94.1162 114.153 94.1367 113.962 94.1367C112.513 94.1367 111.788 93.3734 111.788 91.8467V87.3896H110.715V86.8428L111.788 86.3711L112.267 84.7715H112.923V86.5078H115.097V87.3896H112.923V91.7988C112.923 92.25 113.03 92.5964 113.244 92.8379C113.458 93.0794 113.752 93.2002 114.126 93.2002ZM121.488 91.9561C121.488 92.6533 121.229 93.1911 120.709 93.5693C120.189 93.9476 119.46 94.1367 118.521 94.1367C117.528 94.1367 116.753 93.9795 116.197 93.665V92.6123C116.557 92.7946 116.942 92.9382 117.353 93.043C117.767 93.1478 118.166 93.2002 118.549 93.2002C119.141 93.2002 119.597 93.1068 119.916 92.9199C120.235 92.7285 120.395 92.4391 120.395 92.0518C120.395 91.7601 120.267 91.5117 120.012 91.3066C119.761 91.097 119.269 90.8509 118.535 90.5684C117.838 90.3086 117.341 90.083 117.045 89.8916C116.753 89.6956 116.535 89.4746 116.389 89.2285C116.247 88.9824 116.177 88.6885 116.177 88.3467C116.177 87.736 116.425 87.2552 116.922 86.9043C117.419 86.5488 118.1 86.3711 118.966 86.3711C119.772 86.3711 120.561 86.5352 121.331 86.8633L120.928 87.7861C120.176 87.4762 119.494 87.3213 118.884 87.3213C118.346 87.3213 117.94 87.4056 117.667 87.5742C117.394 87.7428 117.257 87.9753 117.257 88.2715C117.257 88.472 117.307 88.6429 117.407 88.7842C117.512 88.9255 117.678 89.0599 117.906 89.1875C118.134 89.3151 118.572 89.4997 119.219 89.7412C120.107 90.0648 120.707 90.3906 121.017 90.7188C121.331 91.0469 121.488 91.4593 121.488 91.9561ZM133.444 90.2471C133.444 91.4684 133.137 92.4232 132.521 93.1113C131.906 93.7949 131.056 94.1367 129.972 94.1367C129.302 94.1367 128.707 93.9795 128.188 93.665C127.668 93.3506 127.267 92.8994 126.984 92.3115C126.702 91.7236 126.561 91.0355 126.561 90.2471C126.561 89.0257 126.866 88.0755 127.477 87.3965C128.087 86.7129 128.935 86.3711 130.02 86.3711C131.068 86.3711 131.899 86.7197 132.515 87.417C133.134 88.1143 133.444 89.0576 133.444 90.2471ZM127.736 90.2471C127.736 91.2041 127.928 91.9333 128.311 92.4346C128.693 92.9359 129.256 93.1865 129.999 93.1865C130.742 93.1865 131.305 92.9382 131.688 92.4414C132.075 91.9401 132.269 91.2087 132.269 90.2471C132.269 89.2946 132.075 88.5723 131.688 88.0801C131.305 87.5833 130.737 87.335 129.985 87.335C129.243 87.335 128.682 87.5788 128.304 88.0664C127.925 88.554 127.736 89.2809 127.736 90.2471ZM138.858 86.3711C139.191 86.3711 139.49 86.3984 139.754 86.4531L139.597 87.5059C139.287 87.4375 139.013 87.4033 138.776 87.4033C138.17 87.4033 137.651 87.6494 137.218 88.1416C136.789 88.6338 136.575 89.2467 136.575 89.9805V94H135.44V86.5078H136.377L136.507 87.8955H136.562C136.84 87.4079 137.174 87.0319 137.566 86.7676C137.958 86.5033 138.389 86.3711 138.858 86.3711ZM147.957 94.1367C146.85 94.1367 145.975 93.7995 145.332 93.125C144.694 92.4505 144.375 91.514 144.375 90.3154C144.375 89.1077 144.671 88.1484 145.264 87.4375C145.861 86.7266 146.66 86.3711 147.663 86.3711C148.602 86.3711 149.345 86.681 149.892 87.3008C150.438 87.916 150.712 88.7295 150.712 89.7412V90.459H145.551C145.574 91.3385 145.795 92.0062 146.214 92.4619C146.638 92.9176 147.232 93.1455 147.998 93.1455C148.805 93.1455 149.602 92.9769 150.391 92.6396V93.6514C149.99 93.8245 149.609 93.9476 149.249 94.0205C148.894 94.098 148.463 94.1367 147.957 94.1367ZM147.649 87.3213C147.048 87.3213 146.567 87.5173 146.207 87.9092C145.852 88.3011 145.642 88.8434 145.578 89.5361H149.495C149.495 88.8206 149.336 88.2738 149.017 87.8955C148.698 87.5127 148.242 87.3213 147.649 87.3213ZM156.14 94.1367C155.652 94.1367 155.205 94.0479 154.8 93.8701C154.399 93.6878 154.062 93.4098 153.788 93.0361H153.706C153.761 93.4736 153.788 93.8883 153.788 94.2803V97.3633H152.653V86.5078H153.576L153.733 87.5332H153.788C154.08 87.123 154.419 86.8268 154.807 86.6445C155.194 86.4622 155.638 86.3711 156.14 86.3711C157.133 86.3711 157.899 86.7106 158.437 87.3896C158.979 88.0687 159.25 89.0212 159.25 90.2471C159.25 91.4775 158.974 92.4346 158.423 93.1182C157.876 93.7972 157.115 94.1367 156.14 94.1367ZM155.976 87.335C155.21 87.335 154.656 87.5469 154.314 87.9707C153.973 88.3945 153.797 89.069 153.788 89.9941V90.2471C153.788 91.2998 153.964 92.054 154.314 92.5098C154.665 92.9609 155.228 93.1865 156.003 93.1865C156.65 93.1865 157.156 92.9245 157.521 92.4004C157.89 91.8763 158.074 91.154 158.074 90.2334C158.074 89.2992 157.89 88.5837 157.521 88.0869C157.156 87.5856 156.641 87.335 155.976 87.335ZM162.374 94H161.239V86.5078H162.374V94ZM161.144 84.4775C161.144 84.2178 161.207 84.0286 161.335 83.9102C161.463 83.7871 161.622 83.7256 161.813 83.7256C161.996 83.7256 162.153 83.7871 162.285 83.9102C162.417 84.0332 162.483 84.2223 162.483 84.4775C162.483 84.7327 162.417 84.9242 162.285 85.0518C162.153 85.1748 161.996 85.2363 161.813 85.2363C161.622 85.2363 161.463 85.1748 161.335 85.0518C161.207 84.9242 161.144 84.7327 161.144 84.4775ZM169.613 91.9561C169.613 92.6533 169.354 93.1911 168.834 93.5693C168.314 93.9476 167.585 94.1367 166.646 94.1367C165.653 94.1367 164.878 93.9795 164.322 93.665V92.6123C164.682 92.7946 165.067 92.9382 165.478 93.043C165.892 93.1478 166.291 93.2002 166.674 93.2002C167.266 93.2002 167.722 93.1068 168.041 92.9199C168.36 92.7285 168.52 92.4391 168.52 92.0518C168.52 91.7601 168.392 91.5117 168.137 91.3066C167.886 91.097 167.394 90.8509 166.66 90.5684C165.963 90.3086 165.466 90.083 165.17 89.8916C164.878 89.6956 164.66 89.4746 164.514 89.2285C164.372 88.9824 164.302 88.6885 164.302 88.3467C164.302 87.736 164.55 87.2552 165.047 86.9043C165.544 86.5488 166.225 86.3711 167.091 86.3711C167.897 86.3711 168.686 86.5352 169.456 86.8633L169.053 87.7861C168.301 87.4762 167.619 87.3213 167.009 87.3213C166.471 87.3213 166.065 87.4056 165.792 87.5742C165.519 87.7428 165.382 87.9753 165.382 88.2715C165.382 88.472 165.432 88.6429 165.532 88.7842C165.637 88.9255 165.803 89.0599 166.031 89.1875C166.259 89.3151 166.697 89.4997 167.344 89.7412C168.232 90.0648 168.832 90.3906 169.142 90.7188C169.456 91.0469 169.613 91.4593 169.613 91.9561ZM177.933 90.2471C177.933 91.4684 177.625 92.4232 177.01 93.1113C176.395 93.7949 175.545 94.1367 174.46 94.1367C173.79 94.1367 173.195 93.9795 172.676 93.665C172.156 93.3506 171.755 92.8994 171.473 92.3115C171.19 91.7236 171.049 91.0355 171.049 90.2471C171.049 89.0257 171.354 88.0755 171.965 87.3965C172.576 86.7129 173.423 86.3711 174.508 86.3711C175.556 86.3711 176.388 86.7197 177.003 87.417C177.623 88.1143 177.933 89.0576 177.933 90.2471ZM172.225 90.2471C172.225 91.2041 172.416 91.9333 172.799 92.4346C173.182 92.9359 173.744 93.1865 174.487 93.1865C175.23 93.1865 175.793 92.9382 176.176 92.4414C176.563 91.9401 176.757 91.2087 176.757 90.2471C176.757 89.2946 176.563 88.5723 176.176 88.0801C175.793 87.5833 175.226 87.335 174.474 87.335C173.731 87.335 173.17 87.5788 172.792 88.0664C172.414 88.554 172.225 89.2809 172.225 90.2471ZM185.028 92.9951H184.967C184.443 93.7562 183.659 94.1367 182.615 94.1367C181.635 94.1367 180.872 93.8018 180.325 93.1318C179.783 92.4619 179.512 91.5094 179.512 90.2744C179.512 89.0394 179.785 88.0801 180.332 87.3965C180.879 86.7129 181.64 86.3711 182.615 86.3711C183.632 86.3711 184.411 86.7402 184.953 87.4785H185.042L184.994 86.9385L184.967 86.4121V83.3633H186.102V94H185.179L185.028 92.9951ZM182.759 93.1865C183.534 93.1865 184.094 92.9769 184.44 92.5576C184.791 92.1338 184.967 91.4525 184.967 90.5137V90.2744C184.967 89.2126 184.789 88.4561 184.434 88.0049C184.083 87.5492 183.52 87.3213 182.745 87.3213C182.08 87.3213 181.569 87.5811 181.214 88.1006C180.863 88.6156 180.688 89.3447 180.688 90.2881C180.688 91.2451 180.863 91.9674 181.214 92.4551C181.565 92.9427 182.08 93.1865 182.759 93.1865ZM191.68 94.1367C190.572 94.1367 189.697 93.7995 189.055 93.125C188.417 92.4505 188.098 91.514 188.098 90.3154C188.098 89.1077 188.394 88.1484 188.986 87.4375C189.583 86.7266 190.383 86.3711 191.386 86.3711C192.325 86.3711 193.067 86.681 193.614 87.3008C194.161 87.916 194.435 88.7295 194.435 89.7412V90.459H189.273C189.296 91.3385 189.517 92.0062 189.937 92.4619C190.36 92.9176 190.955 93.1455 191.721 93.1455C192.527 93.1455 193.325 92.9769 194.113 92.6396V93.6514C193.712 93.8245 193.332 93.9476 192.972 94.0205C192.616 94.098 192.186 94.1367 191.68 94.1367ZM191.372 87.3213C190.771 87.3213 190.29 87.5173 189.93 87.9092C189.574 88.3011 189.365 88.8434 189.301 89.5361H193.218C193.218 88.8206 193.058 88.2738 192.739 87.8955C192.42 87.5127 191.965 87.3213 191.372 87.3213ZM201.209 91.9561C201.209 92.6533 200.949 93.1911 200.43 93.5693C199.91 93.9476 199.181 94.1367 198.242 94.1367C197.249 94.1367 196.474 93.9795 195.918 93.665V92.6123C196.278 92.7946 196.663 92.9382 197.073 93.043C197.488 93.1478 197.887 93.2002 198.27 93.2002C198.862 93.2002 199.318 93.1068 199.637 92.9199C199.956 92.7285 200.115 92.4391 200.115 92.0518C200.115 91.7601 199.988 91.5117 199.732 91.3066C199.482 91.097 198.99 90.8509 198.256 90.5684C197.559 90.3086 197.062 90.083 196.766 89.8916C196.474 89.6956 196.255 89.4746 196.109 89.2285C195.968 88.9824 195.897 88.6885 195.897 88.3467C195.897 87.736 196.146 87.2552 196.643 86.9043C197.139 86.5488 197.821 86.3711 198.687 86.3711C199.493 86.3711 200.282 86.5352 201.052 86.8633L200.648 87.7861C199.896 87.4762 199.215 87.3213 198.604 87.3213C198.067 87.3213 197.661 87.4056 197.388 87.5742C197.114 87.7428 196.978 87.9753 196.978 88.2715C196.978 88.472 197.028 88.6429 197.128 88.7842C197.233 88.9255 197.399 89.0599 197.627 89.1875C197.855 89.3151 198.292 89.4997 198.939 89.7412C199.828 90.0648 200.427 90.3906 200.737 90.7188C201.052 91.0469 201.209 91.4593 201.209 91.9561ZM202.897 93.2754C202.897 92.9701 202.966 92.7399 203.103 92.585C203.244 92.4255 203.444 92.3457 203.704 92.3457C203.968 92.3457 204.174 92.4255 204.319 92.585C204.47 92.7399 204.545 92.9701 204.545 93.2754C204.545 93.5716 204.47 93.7995 204.319 93.959C204.169 94.1185 203.964 94.1982 203.704 94.1982C203.472 94.1982 203.278 94.1276 203.123 93.9863C202.973 93.8405 202.897 93.6035 202.897 93.2754Z" fill="#212D40"/>
</svg>
